<svg width="26" height="26" viewBox="0 0 26 26" fill="none" xmlns="http://www.w3.org/2000/svg">
<path d="M7.47499 22.317C9.09999 23.292 11.05 23.8337 13 23.8337C18.9583 23.8337 23.8333 18.9587 23.8333 13.0003C23.8333 7.04199 18.9583 2.16699 13 2.16699C7.04166 2.16699 2.16666 7.04199 2.16666 13.0003C2.16666 14.9503 2.70832 16.792 3.57499 18.417L2.6071 22.1396C2.41238 22.8886 3.10558 23.5654 3.84964 23.3528L7.47499 22.317Z" stroke="#2B4DE4" stroke-width="2" stroke-miterlimit="10" stroke-linecap="round" stroke-linejoin="round"/>
<path d="M17.875 16.0859C17.875 16.2614 17.8359 16.4418 17.7529 16.6173C17.6699 16.7928 17.5625 16.9585 17.4209 17.1145C17.1817 17.3778 16.9181 17.5679 16.6202 17.6898C16.3273 17.8116 16.01 17.875 15.6682 17.875C15.1702 17.875 14.638 17.758 14.0766 17.5191C13.5151 17.2803 12.9536 16.9585 12.397 16.5539C11.8356 16.1444 11.3034 15.691 10.7956 15.1889C10.2928 14.6819 9.8387 14.1505 9.43346 13.5948C9.03311 13.039 8.71088 12.4833 8.47653 11.9324C8.24218 11.3766 8.125 10.8453 8.125 10.3383C8.125 10.0068 8.18359 9.68988 8.30076 9.39738C8.41794 9.1 8.60347 8.827 8.86223 8.58325C9.1747 8.27613 9.51646 8.125 9.87775 8.125C10.0145 8.125 10.1512 8.15425 10.2732 8.21275C10.4002 8.27125 10.5125 8.359 10.6003 8.48575L11.733 10.0799C11.8209 10.2018 11.8844 10.3139 11.9283 10.4211C11.9723 10.5235 11.9967 10.6259 11.9967 10.7185C11.9967 10.8355 11.9625 10.9525 11.8942 11.0646C11.8307 11.1767 11.7379 11.2937 11.6207 11.4107L11.2497 11.7959C11.196 11.8495 11.1716 11.9129 11.1716 11.9909C11.1716 12.0299 11.1765 12.064 11.1862 12.103C11.2009 12.142 11.2155 12.1712 11.2253 12.2005C11.3132 12.3614 11.4645 12.571 11.6793 12.8245C11.899 13.078 12.1334 13.3364 12.3873 13.5948C12.6509 13.8531 12.9048 14.092 13.1636 14.3114C13.4174 14.5259 13.6274 14.6721 13.7934 14.7599C13.8178 14.7696 13.8471 14.7842 13.8813 14.7989C13.9203 14.8135 13.9594 14.8184 14.0033 14.8184C14.0863 14.8184 14.1498 14.7891 14.2035 14.7355L14.5745 14.3699C14.6966 14.248 14.8138 14.1554 14.9261 14.0969C15.0384 14.0286 15.1507 13.9945 15.2727 13.9945C15.3655 13.9945 15.4631 14.014 15.5705 14.0579C15.678 14.1018 15.7902 14.1651 15.9123 14.248L17.5284 15.3936C17.6553 15.4814 17.7432 15.5837 17.7969 15.7056C17.8457 15.8275 17.875 15.9494 17.875 16.0859Z" stroke="#2B4DE4" stroke-width="2" stroke-miterlimit="10"/>
</svg>
